<svg width="375" height="812" viewBox="0 0 375 812" fill="none" xmlns="http://www.w3.org/2000/svg">
<rect width="375" height="812" fill="#F0F0F7"/>
<rect width="375" height="527" fill="#8257E5"/>
<path fill-rule="evenodd" clip-rule="evenodd" d="M70.253 182.721C70.6441 182.331 70.6449 181.698 70.2549 181.307C69.8649 180.916 69.2318 180.915 68.8407 181.305L66.7289 183.411L64.617 181.305C64.226 180.915 63.5928 180.916 63.2028 181.307C62.8128 181.698 62.8137 182.331 63.2047 182.721L65.3127 184.823L63.2047 186.926C62.8137 187.316 62.8128 187.949 63.2028 188.34C63.5928 188.731 64.226 188.732 64.617 188.342L66.7289 186.236L68.8407 188.342C69.2318 188.732 69.8649 188.731 70.2549 188.34C70.6449 187.949 70.6441 187.316 70.253 186.926L68.145 184.823L70.253 182.721Z" fill="#9871F5"/>
<path d="M306.156 181.674C303.487 181.674 301.313 179.515 301.313 176.843C301.313 174.181 303.478 172.012 306.156 172.012C308.825 172.012 311 174.172 311 176.843C310.991 179.515 308.825 181.674 306.156 181.674Z" stroke="#9871F5" stroke-width="2" stroke-miterlimit="10" stroke-linecap="round" stroke-linejoin="round"/>
<path d="M107.844 98.6647C105.175 98.6647 103 96.5051 103 93.8335C103 91.1713 105.165 89.0023 107.844 89.0023C110.513 89.0023 112.687 91.1619 112.687 93.8335C112.678 96.5051 110.513 98.6647 107.844 98.6647Z" stroke="#9871F5" stroke-width="2" stroke-miterlimit="10" stroke-linecap="round" stroke-linejoin="round"/>
<path d="M143.652 298L138 303.621" stroke="#9871F5" stroke-width="2" stroke-miterlimit="10" stroke-linecap="round" stroke-linejoin="round"/>
<path d="M143.652 303.621L138 298" stroke="#9871F5" stroke-width="2" stroke-miterlimit="10" stroke-linecap="round" stroke-linejoin="round"/>
<path d="M287.573 292.711C284.615 292.711 282.216 290.319 282.216 287.368C282.216 284.417 284.615 282.025 287.573 282.025C290.532 282.025 292.93 284.417 292.93 287.368C292.93 290.309 290.532 292.711 287.573 292.711Z" stroke="#9871F5" stroke-width="2" stroke-miterlimit="10" stroke-linecap="round" stroke-linejoin="round"/>
<path d="M283.878 291.23L280.089 294.999" stroke="#9871F5" stroke-width="2" stroke-miterlimit="10" stroke-linecap="round" stroke-linejoin="round"/>
<path d="M78.2448 263.772C78.2448 264.739 79.0302 265.522 79.999 265.522C80.9679 265.522 81.7533 264.739 81.7533 263.772C81.7533 262.806 80.9679 262.023 79.999 262.023C79.0302 262.023 78.2448 262.806 78.2448 263.772Z" fill="#9871F5"/>
<path d="M78.2452 275.985C78.2452 276.952 79.0306 277.735 79.9995 277.735C80.9683 277.735 81.7537 276.952 81.7537 275.985C81.7537 275.019 80.9683 274.236 79.9995 274.236C79.0306 274.236 78.2452 275.019 78.2452 275.985Z" fill="#9871F5"/>
<path d="M78.2452 288.205C78.2452 289.171 79.0306 289.955 79.9995 289.955C80.9683 289.955 81.7537 289.171 81.7537 288.205C81.7537 287.239 80.9683 286.456 79.9995 286.456C79.0306 286.456 78.2452 287.239 78.2452 288.205Z" fill="#9871F5"/>
<path d="M65.9913 263.772C65.9913 264.738 66.7767 265.521 67.7456 265.521C68.7144 265.521 69.4998 264.738 69.4998 263.772C69.4998 262.806 68.7144 262.022 67.7456 262.022C66.7767 262.022 65.9913 262.806 65.9913 263.772Z" fill="#9871F5"/>
<path d="M65.9913 275.985C65.9913 276.952 66.7767 277.735 67.7456 277.735C68.7144 277.735 69.4998 276.952 69.4998 275.985C69.4998 275.019 68.7144 274.236 67.7456 274.236C66.7767 274.236 65.9913 275.019 65.9913 275.985Z" fill="#9871F5"/>
<path d="M65.9913 288.205C65.9913 289.171 66.7767 289.955 67.7456 289.955C68.7144 289.955 69.4998 289.171 69.4998 288.205C69.4998 287.239 68.7144 286.456 67.7456 286.456C66.7767 286.456 65.9913 287.239 65.9913 288.205Z" fill="#9871F5"/>
<path d="M275.096 107.404C275.096 108.37 275.881 109.153 276.85 109.153C277.819 109.153 278.604 108.37 278.604 107.404C278.604 106.437 277.819 105.654 276.85 105.654C275.881 105.654 275.096 106.437 275.096 107.404Z" fill="#9871F5"/>
<path d="M262.842 107.404C262.842 108.371 263.627 109.154 264.596 109.154C265.565 109.154 266.35 108.371 266.35 107.404C266.35 106.438 265.565 105.655 264.596 105.655C263.627 105.655 262.842 106.438 262.842 107.404Z" fill="#9871F5"/>
<path d="M250.597 107.404C250.597 108.371 251.383 109.154 252.351 109.154C253.32 109.154 254.106 108.371 254.106 107.404C254.106 106.438 253.32 105.655 252.351 105.655C251.383 105.655 250.597 106.438 250.597 107.404Z" fill="#9871F5"/>
<path d="M238.343 107.404C238.343 108.371 239.129 109.154 240.098 109.154C241.066 109.154 241.852 108.371 241.852 107.404C241.852 106.438 241.066 105.655 240.098 105.655C239.129 105.655 238.343 106.438 238.343 107.404Z" fill="#9871F5"/>
<path d="M226.099 107.404C226.099 108.371 226.884 109.154 227.853 109.154C228.822 109.154 229.607 108.371 229.607 107.404C229.607 106.438 228.822 105.655 227.853 105.655C226.884 105.655 226.099 106.438 226.099 107.404Z" fill="#9871F5"/>
<path d="M213.845 107.404C213.845 108.371 214.63 109.154 215.599 109.154C216.568 109.154 217.354 108.371 217.354 107.404C217.354 106.438 216.568 105.655 215.599 105.655C214.63 105.655 213.845 106.438 213.845 107.404Z" fill="#9871F5"/>
<path d="M201.6 107.404C201.6 108.371 202.386 109.154 203.355 109.154C204.323 109.154 205.109 108.371 205.109 107.404C205.109 106.438 204.323 105.655 203.355 105.655C202.386 105.655 201.6 106.438 201.6 107.404Z" fill="#9871F5"/>
<path d="M275.096 95.183C275.096 96.1493 275.881 96.9326 276.85 96.9326C277.819 96.9326 278.604 96.1493 278.604 95.183C278.604 94.2168 277.819 93.4335 276.85 93.4335C275.881 93.4335 275.096 94.2168 275.096 95.183Z" fill="#9871F5"/>
<path d="M262.842 95.1831C262.842 96.1493 263.627 96.9326 264.596 96.9326C265.565 96.9326 266.35 96.1493 266.35 95.1831C266.35 94.2169 265.565 93.4336 264.596 93.4336C263.627 93.4336 262.842 94.2169 262.842 95.1831Z" fill="#9871F5"/>
<path d="M250.597 95.1831C250.597 96.1493 251.383 96.9326 252.351 96.9326C253.32 96.9326 254.106 96.1493 254.106 95.1831C254.106 94.2169 253.32 93.4336 252.351 93.4336C251.383 93.4336 250.597 94.2169 250.597 95.1831Z" fill="#9871F5"/>
<path d="M238.343 95.1831C238.343 96.1493 239.129 96.9326 240.098 96.9326C241.066 96.9326 241.852 96.1493 241.852 95.1831C241.852 94.2169 241.066 93.4336 240.098 93.4336C239.129 93.4336 238.343 94.2169 238.343 95.1831Z" fill="#9871F5"/>
<path d="M226.099 95.1831C226.099 96.1493 226.884 96.9326 227.853 96.9326C228.822 96.9326 229.607 96.1493 229.607 95.1831C229.607 94.2169 228.822 93.4336 227.853 93.4336C226.884 93.4336 226.099 94.2169 226.099 95.1831Z" fill="#9871F5"/>
<path d="M213.845 95.1831C213.845 96.1493 214.63 96.9326 215.599 96.9326C216.568 96.9326 217.354 96.1493 217.354 95.1831C217.354 94.2169 216.568 93.4336 215.599 93.4336C214.63 93.4336 213.845 94.2169 213.845 95.1831Z" fill="#9871F5"/>
<path d="M201.6 95.1831C201.6 96.1493 202.386 96.9326 203.355 96.9326C204.323 96.9326 205.109 96.1493 205.109 95.1831C205.109 94.2169 204.323 93.4336 203.355 93.4336C202.386 93.4336 201.6 94.2169 201.6 95.1831Z" fill="#9871F5"/>
<path d="M275.096 82.9707C275.096 83.9369 275.881 84.7202 276.85 84.7202C277.819 84.7202 278.604 83.9369 278.604 82.9707C278.604 82.0044 277.819 81.2212 276.85 81.2212C275.881 81.2212 275.096 82.0044 275.096 82.9707Z" fill="#9871F5"/>
<path d="M262.842 82.9707C262.842 83.9369 263.627 84.7202 264.596 84.7202C265.565 84.7202 266.35 83.9369 266.35 82.9707C266.35 82.0045 265.565 81.2212 264.596 81.2212C263.627 81.2212 262.842 82.0045 262.842 82.9707Z" fill="#9871F5"/>
<path d="M250.597 82.9707C250.597 83.9369 251.383 84.7202 252.351 84.7202C253.32 84.7202 254.106 83.9369 254.106 82.9707C254.106 82.0045 253.32 81.2212 252.351 81.2212C251.383 81.2212 250.597 82.0045 250.597 82.9707Z" fill="#9871F5"/>
<path d="M238.343 82.9707C238.343 83.9369 239.129 84.7202 240.098 84.7202C241.066 84.7202 241.852 83.9369 241.852 82.9707C241.852 82.0045 241.066 81.2212 240.098 81.2212C239.129 81.2212 238.343 82.0045 238.343 82.9707Z" fill="#9871F5"/>
<path d="M226.099 82.9707C226.099 83.9369 226.884 84.7202 227.853 84.7202C228.822 84.7202 229.607 83.9369 229.607 82.9707C229.607 82.0045 228.822 81.2212 227.853 81.2212C226.884 81.2212 226.099 82.0045 226.099 82.9707Z" fill="#9871F5"/>
<path d="M213.845 82.9707C213.845 83.9369 214.63 84.7202 215.599 84.7202C216.568 84.7202 217.353 83.9369 217.353 82.9707C217.353 82.0045 216.568 81.2212 215.599 81.2212C214.63 81.2212 213.845 82.0045 213.845 82.9707Z" fill="#9871F5"/>
<path d="M201.6 82.9707C201.6 83.9369 202.386 84.7202 203.355 84.7202C204.323 84.7202 205.109 83.9369 205.109 82.9707C205.109 82.0045 204.323 81.2212 203.355 81.2212C202.386 81.2212 201.6 82.0045 201.6 82.9707Z" fill="#9871F5"/>
<path d="M275.095 70.75C275.095 71.7162 275.88 72.4995 276.849 72.4995C277.818 72.4995 278.603 71.7162 278.603 70.75C278.603 69.7837 277.818 69.0005 276.849 69.0005C275.88 69.0005 275.095 69.7837 275.095 70.75Z" fill="#9871F5"/>
<path d="M262.842 70.7495C262.842 71.7157 263.627 72.499 264.596 72.499C265.565 72.499 266.35 71.7157 266.35 70.7495C266.35 69.7833 265.565 69 264.596 69C263.627 69 262.842 69.7833 262.842 70.7495Z" fill="#9871F5"/>
<path d="M250.597 70.7495C250.597 71.7157 251.383 72.499 252.351 72.499C253.32 72.499 254.106 71.7157 254.106 70.7495C254.106 69.7833 253.32 69 252.351 69C251.383 69 250.597 69.7833 250.597 70.7495Z" fill="#9871F5"/>
<path d="M238.343 70.7495C238.343 71.7157 239.129 72.499 240.098 72.499C241.066 72.499 241.852 71.7157 241.852 70.7495C241.852 69.7833 241.066 69 240.098 69C239.129 69 238.343 69.7833 238.343 70.7495Z" fill="#9871F5"/>
<path d="M226.099 70.7495C226.099 71.7157 226.884 72.499 227.853 72.499C228.822 72.499 229.607 71.7157 229.607 70.7495C229.607 69.7833 228.822 69 227.853 69C226.884 69 226.099 69.7833 226.099 70.7495Z" fill="#9871F5"/>
<path d="M213.845 70.7495C213.845 71.7157 214.63 72.499 215.599 72.499C216.568 72.499 217.353 71.7157 217.353 70.7495C217.353 69.7833 216.568 69 215.599 69C214.63 69 213.845 69.7833 213.845 70.7495Z" fill="#9871F5"/>
<path d="M201.6 70.7495C201.6 71.7157 202.386 72.499 203.355 72.499C204.323 72.499 205.109 71.7157 205.109 70.7495C205.109 69.7833 204.323 69 203.355 69C202.386 69 201.6 69.7833 201.6 70.7495Z" fill="#9871F5"/>
<path d="M97.648 279V246.072H111.088C114.512 246.072 117.424 246.664 119.824 247.848C122.224 249.032 124.064 250.84 125.344 253.272C126.656 255.672 127.312 258.76 127.312 262.536C127.312 266.28 126.656 269.368 125.344 271.8C124.064 274.232 122.224 276.04 119.824 277.224C117.424 278.408 114.512 279 111.088 279H97.648ZM104.8 273.096H111.04C112.48 273.096 113.76 272.888 114.88 272.472C116 272.056 116.928 271.448 117.664 270.648C118.4 269.816 118.96 268.792 119.344 267.576C119.728 266.328 119.92 264.888 119.92 263.256V261.816C119.92 260.184 119.728 258.76 119.344 257.544C118.96 256.296 118.4 255.272 117.664 254.472C116.928 253.64 116 253.016 114.88 252.6C113.76 252.152 112.48 251.928 111.04 251.928H104.8V273.096ZM144.028 279.576C141.244 279.576 138.908 279.112 137.02 278.184C135.132 277.224 133.708 275.768 132.748 273.816C131.788 271.864 131.308 269.384 131.308 266.376C131.308 263.336 131.788 260.856 132.748 258.936C133.708 256.984 135.116 255.544 136.972 254.616C138.86 253.656 141.164 253.176 143.884 253.176C146.444 253.176 148.604 253.64 150.364 254.568C152.124 255.464 153.452 256.872 154.348 258.792C155.244 260.68 155.692 263.128 155.692 266.136V267.864H138.076C138.14 269.336 138.364 270.584 138.748 271.608C139.164 272.632 139.788 273.4 140.62 273.912C141.484 274.392 142.62 274.632 144.028 274.632C144.796 274.632 145.484 274.536 146.092 274.344C146.732 274.152 147.276 273.864 147.724 273.48C148.172 273.096 148.524 272.616 148.78 272.04C149.036 271.464 149.164 270.808 149.164 270.072H155.692C155.692 271.672 155.404 273.064 154.828 274.248C154.252 275.432 153.452 276.424 152.428 277.224C151.404 277.992 150.172 278.584 148.732 279C147.324 279.384 145.756 279.576 144.028 279.576ZM138.172 263.64H148.828C148.828 262.68 148.7 261.848 148.444 261.144C148.22 260.44 147.9 259.864 147.484 259.416C147.068 258.968 146.556 258.648 145.948 258.456C145.372 258.232 144.716 258.12 143.98 258.12C142.764 258.12 141.74 258.328 140.908 258.744C140.108 259.128 139.484 259.736 139.036 260.568C138.62 261.368 138.332 262.392 138.172 263.64ZM167.116 279L157.708 253.752H164.764L168.46 264.408C168.652 264.952 168.876 265.672 169.132 266.568C169.42 267.464 169.708 268.408 169.996 269.4C170.284 270.392 170.524 271.288 170.716 272.088H170.956C171.18 271.352 171.42 270.504 171.676 269.544C171.932 268.552 172.188 267.608 172.444 266.712C172.732 265.784 172.972 265.016 173.164 264.408L176.86 253.752H183.58L174.124 279H167.116ZM196.26 250.056V244.296H202.932V250.056H196.26ZM196.116 288.024C195.668 288.024 195.156 287.992 194.58 287.928C194.036 287.864 193.491 287.768 192.947 287.64C192.403 287.544 191.955 287.416 191.604 287.256V282.888H194.004C194.74 282.888 195.3 282.68 195.684 282.264C196.068 281.88 196.26 281.304 196.26 280.536V253.752H202.932V281.064C202.932 282.344 202.708 283.512 202.26 284.568C201.844 285.624 201.14 286.456 200.148 287.064C199.188 287.704 197.844 288.024 196.116 288.024ZM220.532 279.576C217.78 279.576 215.444 279.112 213.524 278.184C211.604 277.224 210.148 275.768 209.156 273.816C208.164 271.832 207.668 269.352 207.668 266.376C207.668 263.336 208.164 260.856 209.156 258.936C210.148 256.984 211.604 255.544 213.524 254.616C215.444 253.656 217.78 253.176 220.532 253.176C223.348 253.176 225.7 253.656 227.588 254.616C229.508 255.544 230.964 256.984 231.956 258.936C232.948 260.856 233.444 263.336 233.444 266.376C233.444 269.352 232.948 271.832 231.956 273.816C230.964 275.768 229.508 277.224 227.588 278.184C225.7 279.112 223.348 279.576 220.532 279.576ZM220.532 274.392C222.004 274.392 223.172 274.12 224.036 273.576C224.932 273.032 225.588 272.2 226.004 271.08C226.42 269.96 226.628 268.584 226.628 266.952V265.8C226.628 264.168 226.42 262.792 226.004 261.672C225.588 260.552 224.932 259.72 224.036 259.176C223.172 258.6 222.004 258.312 220.532 258.312C219.092 258.312 217.924 258.6 217.028 259.176C216.164 259.72 215.524 260.552 215.108 261.672C214.692 262.792 214.484 264.168 214.484 265.8V266.952C214.484 268.584 214.692 269.96 215.108 271.08C215.524 272.2 216.164 273.032 217.028 273.576C217.924 274.12 219.092 274.392 220.532 274.392ZM252.465 279.576C250.833 279.576 249.329 279.256 247.953 278.616C246.609 277.944 245.521 276.936 244.689 275.592H244.353L243.825 279H238.353V244.296H245.025V256.536H245.313C245.825 255.8 246.449 255.176 247.185 254.664C247.921 254.152 248.753 253.784 249.681 253.56C250.609 253.304 251.617 253.176 252.705 253.176C254.689 253.176 256.417 253.64 257.889 254.568C259.393 255.496 260.561 256.936 261.393 258.888C262.225 260.808 262.641 263.288 262.641 266.328C262.641 269.368 262.225 271.864 261.393 273.816C260.593 275.768 259.425 277.224 257.889 278.184C256.385 279.112 254.577 279.576 252.465 279.576ZM250.401 274.104C251.745 274.104 252.801 273.848 253.569 273.336C254.369 272.792 254.945 271.992 255.297 270.936C255.649 269.88 255.825 268.552 255.825 266.952V265.848C255.825 264.248 255.649 262.92 255.297 261.864C254.945 260.776 254.369 259.976 253.569 259.464C252.801 258.92 251.745 258.648 250.401 258.648C249.441 258.648 248.625 258.824 247.953 259.176C247.281 259.496 246.721 259.976 246.273 260.616C245.857 261.224 245.537 261.992 245.313 262.92C245.089 263.848 244.977 264.872 244.977 265.992V266.856C244.977 268.36 245.169 269.656 245.553 270.744C245.937 271.832 246.529 272.664 247.329 273.24C248.129 273.816 249.153 274.104 250.401 274.104ZM277.78 279.576C276.02 279.576 274.436 279.384 273.028 279C271.62 278.616 270.42 278.088 269.428 277.416C268.436 276.712 267.668 275.88 267.124 274.92C266.612 273.96 266.356 272.872 266.356 271.656C266.356 271.528 266.356 271.4 266.356 271.272C266.356 271.144 266.372 271.048 266.404 270.984H272.836C272.836 271.048 272.836 271.112 272.836 271.176C272.836 271.24 272.836 271.304 272.836 271.368C272.868 272.168 273.124 272.824 273.604 273.336C274.084 273.816 274.708 274.168 275.476 274.392C276.276 274.616 277.108 274.728 277.972 274.728C278.74 274.728 279.476 274.664 280.18 274.536C280.916 274.376 281.524 274.104 282.004 273.72C282.516 273.336 282.772 272.84 282.772 272.232C282.772 271.464 282.452 270.872 281.812 270.456C281.204 270.04 280.388 269.704 279.364 269.448C278.372 269.192 277.284 268.904 276.1 268.584C275.012 268.328 273.924 268.04 272.836 267.72C271.748 267.368 270.756 266.92 269.86 266.376C268.996 265.832 268.292 265.128 267.748 264.264C267.204 263.368 266.932 262.248 266.932 260.904C266.932 259.592 267.22 258.456 267.796 257.496C268.372 256.504 269.156 255.688 270.148 255.048C271.172 254.408 272.356 253.944 273.7 253.656C275.076 253.336 276.548 253.176 278.116 253.176C279.588 253.176 280.964 253.336 282.244 253.656C283.524 253.944 284.644 254.392 285.604 255C286.564 255.576 287.316 256.312 287.86 257.208C288.404 258.072 288.676 259.048 288.676 260.136C288.676 260.36 288.676 260.568 288.676 260.76C288.676 260.952 288.66 261.08 288.628 261.144H282.244V260.76C282.244 260.184 282.068 259.704 281.716 259.32C281.364 258.904 280.852 258.584 280.18 258.36C279.54 258.136 278.756 258.024 277.828 258.024C277.188 258.024 276.596 258.072 276.052 258.168C275.54 258.264 275.092 258.408 274.708 258.6C274.324 258.792 274.02 259.032 273.796 259.32C273.604 259.576 273.508 259.896 273.508 260.28C273.508 260.824 273.732 261.272 274.18 261.624C274.66 261.944 275.284 262.216 276.052 262.44C276.82 262.664 277.668 262.904 278.596 263.16C279.748 263.48 280.948 263.8 282.196 264.12C283.476 264.408 284.66 264.808 285.748 265.32C286.836 265.832 287.716 266.568 288.388 267.528C289.06 268.456 289.396 269.72 289.396 271.32C289.396 272.856 289.092 274.152 288.484 275.208C287.908 276.264 287.092 277.112 286.036 277.752C284.98 278.392 283.748 278.856 282.34 279.144C280.932 279.432 279.412 279.576 277.78 279.576Z" fill="white"/>
<path d="M105.768 312.112C105.032 312.112 104.371 311.984 103.784 311.728C103.208 311.461 102.755 311.099 102.424 310.64C102.093 310.171 101.923 309.632 101.912 309.024H103.464C103.517 309.547 103.731 309.989 104.104 310.352C104.488 310.704 105.043 310.88 105.768 310.88C106.461 310.88 107.005 310.709 107.4 310.368C107.805 310.016 108.008 309.568 108.008 309.024C108.008 308.597 107.891 308.251 107.656 307.984C107.421 307.717 107.128 307.515 106.776 307.376C106.424 307.237 105.949 307.088 105.352 306.928C104.616 306.736 104.024 306.544 103.576 306.352C103.139 306.16 102.76 305.861 102.44 305.456C102.131 305.04 101.976 304.485 101.976 303.792C101.976 303.184 102.131 302.645 102.44 302.176C102.749 301.707 103.181 301.344 103.736 301.088C104.301 300.832 104.947 300.704 105.672 300.704C106.717 300.704 107.571 300.965 108.232 301.488C108.904 302.011 109.283 302.704 109.368 303.568H107.768C107.715 303.141 107.491 302.768 107.096 302.448C106.701 302.117 106.179 301.952 105.528 301.952C104.92 301.952 104.424 302.112 104.04 302.432C103.656 302.741 103.464 303.179 103.464 303.744C103.464 304.149 103.576 304.48 103.8 304.736C104.035 304.992 104.317 305.189 104.648 305.328C104.989 305.456 105.464 305.605 106.072 305.776C106.808 305.979 107.4 306.181 107.848 306.384C108.296 306.576 108.68 306.88 109 307.296C109.32 307.701 109.48 308.256 109.48 308.96C109.48 309.504 109.336 310.016 109.048 310.496C108.76 310.976 108.333 311.365 107.768 311.664C107.203 311.963 106.536 312.112 105.768 312.112ZM119.623 307.28C119.623 307.557 119.607 307.851 119.575 308.16H112.567C112.62 309.024 112.913 309.701 113.447 310.192C113.991 310.672 114.647 310.912 115.415 310.912C116.044 310.912 116.567 310.768 116.983 310.48C117.409 310.181 117.708 309.787 117.879 309.296H119.447C119.212 310.139 118.743 310.827 118.039 311.36C117.335 311.883 116.46 312.144 115.415 312.144C114.583 312.144 113.836 311.957 113.175 311.584C112.524 311.211 112.012 310.683 111.639 310C111.265 309.307 111.079 308.507 111.079 307.6C111.079 306.693 111.26 305.899 111.623 305.216C111.985 304.533 112.492 304.011 113.143 303.648C113.804 303.275 114.561 303.088 115.415 303.088C116.247 303.088 116.983 303.269 117.623 303.632C118.263 303.995 118.753 304.496 119.095 305.136C119.447 305.765 119.623 306.48 119.623 307.28ZM118.119 306.976C118.119 306.421 117.996 305.947 117.751 305.552C117.505 305.147 117.169 304.843 116.743 304.64C116.327 304.427 115.863 304.32 115.351 304.32C114.615 304.32 113.985 304.555 113.463 305.024C112.951 305.493 112.657 306.144 112.583 306.976H118.119ZM129.321 303.232V312H127.865V310.704C127.587 311.152 127.198 311.504 126.697 311.76C126.206 312.005 125.662 312.128 125.065 312.128C124.382 312.128 123.769 311.989 123.225 311.712C122.681 311.424 122.249 310.997 121.929 310.432C121.619 309.867 121.465 309.179 121.465 308.368V303.232H122.905V308.176C122.905 309.04 123.123 309.707 123.561 310.176C123.998 310.635 124.595 310.864 125.353 310.864C126.131 310.864 126.745 310.624 127.193 310.144C127.641 309.664 127.865 308.965 127.865 308.048V303.232H129.321ZM137.501 304.864C137.799 304.341 138.237 303.915 138.812 303.584C139.389 303.253 140.045 303.088 140.781 303.088C141.57 303.088 142.279 303.275 142.909 303.648C143.538 304.021 144.034 304.549 144.397 305.232C144.759 305.904 144.941 306.688 144.941 307.584C144.941 308.469 144.759 309.259 144.397 309.952C144.034 310.645 143.532 311.184 142.892 311.568C142.263 311.952 141.559 312.144 140.781 312.144C140.023 312.144 139.357 311.979 138.781 311.648C138.215 311.317 137.789 310.896 137.501 310.384V312H136.045V300.16H137.501V304.864ZM143.453 307.584C143.453 306.923 143.319 306.347 143.053 305.856C142.786 305.365 142.423 304.992 141.965 304.736C141.517 304.48 141.021 304.352 140.477 304.352C139.943 304.352 139.447 304.485 138.989 304.752C138.541 305.008 138.178 305.387 137.901 305.888C137.634 306.379 137.501 306.949 137.501 307.6C137.501 308.261 137.634 308.843 137.901 309.344C138.178 309.835 138.541 310.213 138.989 310.48C139.447 310.736 139.943 310.864 140.477 310.864C141.021 310.864 141.517 310.736 141.965 310.48C142.423 310.213 142.786 309.835 143.053 309.344C143.319 308.843 143.453 308.256 143.453 307.584ZM154.633 303.232V312H153.177V310.704C152.9 311.152 152.51 311.504 152.009 311.76C151.518 312.005 150.974 312.128 150.377 312.128C149.694 312.128 149.081 311.989 148.537 311.712C147.993 311.424 147.561 310.997 147.241 310.432C146.932 309.867 146.777 309.179 146.777 308.368V303.232H148.217V308.176C148.217 309.04 148.436 309.707 148.873 310.176C149.31 310.635 149.908 310.864 150.665 310.864C151.444 310.864 152.057 310.624 152.505 310.144C152.953 309.664 153.177 308.965 153.177 308.048V303.232H154.633ZM160.195 312.144C159.523 312.144 158.921 312.032 158.387 311.808C157.854 311.573 157.433 311.253 157.123 310.848C156.814 310.432 156.643 309.957 156.611 309.424H158.115C158.158 309.861 158.361 310.219 158.723 310.496C159.097 310.773 159.582 310.912 160.179 310.912C160.734 310.912 161.171 310.789 161.491 310.544C161.811 310.299 161.971 309.989 161.971 309.616C161.971 309.232 161.801 308.949 161.459 308.768C161.118 308.576 160.59 308.389 159.875 308.208C159.225 308.037 158.691 307.867 158.275 307.696C157.87 307.515 157.518 307.253 157.219 306.912C156.931 306.56 156.787 306.101 156.787 305.536C156.787 305.088 156.921 304.677 157.187 304.304C157.454 303.931 157.833 303.637 158.323 303.424C158.814 303.2 159.374 303.088 160.003 303.088C160.974 303.088 161.758 303.333 162.355 303.824C162.953 304.315 163.273 304.987 163.315 305.84H161.859C161.827 305.381 161.641 305.013 161.299 304.736C160.969 304.459 160.521 304.32 159.955 304.32C159.433 304.32 159.017 304.432 158.707 304.656C158.398 304.88 158.243 305.173 158.243 305.536C158.243 305.824 158.334 306.064 158.515 306.256C158.707 306.437 158.942 306.587 159.219 306.704C159.507 306.811 159.902 306.933 160.403 307.072C161.033 307.243 161.545 307.413 161.939 307.584C162.334 307.744 162.67 307.989 162.947 308.32C163.235 308.651 163.385 309.083 163.395 309.616C163.395 310.096 163.262 310.528 162.995 310.912C162.729 311.296 162.35 311.6 161.859 311.824C161.379 312.037 160.825 312.144 160.195 312.144ZM164.907 307.6C164.907 306.693 165.088 305.904 165.451 305.232C165.813 304.549 166.315 304.021 166.955 303.648C167.605 303.275 168.347 303.088 169.179 303.088C170.256 303.088 171.141 303.349 171.835 303.872C172.539 304.395 173.003 305.12 173.227 306.048H171.659C171.509 305.515 171.216 305.093 170.779 304.784C170.352 304.475 169.819 304.32 169.179 304.32C168.347 304.32 167.675 304.608 167.163 305.184C166.651 305.749 166.395 306.555 166.395 307.6C166.395 308.656 166.651 309.472 167.163 310.048C167.675 310.624 168.347 310.912 169.179 310.912C169.819 310.912 170.352 310.763 170.779 310.464C171.205 310.165 171.499 309.739 171.659 309.184H173.227C172.992 310.08 172.523 310.8 171.819 311.344C171.115 311.877 170.235 312.144 169.179 312.144C168.347 312.144 167.605 311.957 166.955 311.584C166.315 311.211 165.813 310.683 165.451 310C165.088 309.317 164.907 308.517 164.907 307.6ZM174.626 307.584C174.626 306.688 174.807 305.904 175.17 305.232C175.532 304.549 176.028 304.021 176.658 303.648C177.298 303.275 178.007 303.088 178.786 303.088C179.554 303.088 180.22 303.253 180.786 303.584C181.351 303.915 181.772 304.331 182.05 304.832V303.232H183.522V312H182.05V310.368C181.762 310.88 181.33 311.307 180.754 311.648C180.188 311.979 179.527 312.144 178.77 312.144C177.991 312.144 177.287 311.952 176.658 311.568C176.028 311.184 175.532 310.645 175.17 309.952C174.807 309.259 174.626 308.469 174.626 307.584ZM182.05 307.6C182.05 306.939 181.916 306.363 181.65 305.872C181.383 305.381 181.02 305.008 180.562 304.752C180.114 304.485 179.618 304.352 179.074 304.352C178.53 304.352 178.034 304.48 177.586 304.736C177.138 304.992 176.78 305.365 176.514 305.856C176.247 306.347 176.114 306.923 176.114 307.584C176.114 308.256 176.247 308.843 176.514 309.344C176.78 309.835 177.138 310.213 177.586 310.48C178.034 310.736 178.53 310.864 179.074 310.864C179.618 310.864 180.114 310.736 180.562 310.48C181.02 310.213 181.383 309.835 181.65 309.344C181.916 308.843 182.05 308.261 182.05 307.6ZM185.438 307.584C185.438 306.688 185.619 305.904 185.982 305.232C186.345 304.549 186.841 304.021 187.47 303.648C188.11 303.275 188.825 303.088 189.614 303.088C190.297 303.088 190.931 303.248 191.518 303.568C192.105 303.877 192.553 304.288 192.862 304.8V300.16H194.334V312H192.862V310.352C192.574 310.875 192.147 311.307 191.582 311.648C191.017 311.979 190.355 312.144 189.598 312.144C188.819 312.144 188.11 311.952 187.47 311.568C186.841 311.184 186.345 310.645 185.982 309.952C185.619 309.259 185.438 308.469 185.438 307.584ZM192.862 307.6C192.862 306.939 192.729 306.363 192.462 305.872C192.195 305.381 191.833 305.008 191.374 304.752C190.926 304.485 190.43 304.352 189.886 304.352C189.342 304.352 188.846 304.48 188.398 304.736C187.95 304.992 187.593 305.365 187.326 305.856C187.059 306.347 186.926 306.923 186.926 307.584C186.926 308.256 187.059 308.843 187.326 309.344C187.593 309.835 187.95 310.213 188.398 310.48C188.846 310.736 189.342 310.864 189.886 310.864C190.43 310.864 190.926 310.736 191.374 310.48C191.833 310.213 192.195 309.835 192.462 309.344C192.729 308.843 192.862 308.261 192.862 307.6ZM200.619 312.144C199.797 312.144 199.051 311.957 198.379 311.584C197.717 311.211 197.195 310.683 196.811 310C196.437 309.307 196.251 308.507 196.251 307.6C196.251 306.704 196.443 305.915 196.827 305.232C197.221 304.539 197.755 304.011 198.427 303.648C199.099 303.275 199.851 303.088 200.683 303.088C201.515 303.088 202.267 303.275 202.939 303.648C203.611 304.011 204.139 304.533 204.523 305.216C204.917 305.899 205.115 306.693 205.115 307.6C205.115 308.507 204.912 309.307 204.507 310C204.112 310.683 203.573 311.211 202.891 311.584C202.208 311.957 201.451 312.144 200.619 312.144ZM200.619 310.864C201.141 310.864 201.632 310.741 202.091 310.496C202.549 310.251 202.917 309.883 203.195 309.392C203.483 308.901 203.627 308.304 203.627 307.6C203.627 306.896 203.488 306.299 203.211 305.808C202.933 305.317 202.571 304.955 202.123 304.72C201.675 304.475 201.189 304.352 200.667 304.352C200.133 304.352 199.643 304.475 199.195 304.72C198.757 304.955 198.405 305.317 198.139 305.808C197.872 306.299 197.739 306.896 197.739 307.6C197.739 308.315 197.867 308.917 198.123 309.408C198.389 309.899 198.741 310.267 199.179 310.512C199.616 310.747 200.096 310.864 200.619 310.864ZM208.485 304.656C208.741 304.155 209.104 303.765 209.573 303.488C210.053 303.211 210.634 303.072 211.317 303.072V304.576H210.933C209.301 304.576 208.485 305.461 208.485 307.232V312H207.029V303.232H208.485V304.656ZM216.719 307.584C216.719 306.688 216.901 305.904 217.263 305.232C217.626 304.549 218.122 304.021 218.751 303.648C219.391 303.275 220.106 303.088 220.895 303.088C221.578 303.088 222.213 303.248 222.799 303.568C223.386 303.877 223.834 304.288 224.143 304.8V300.16H225.615V312H224.143V310.352C223.855 310.875 223.429 311.307 222.863 311.648C222.298 311.979 221.637 312.144 220.879 312.144C220.101 312.144 219.391 311.952 218.751 311.568C218.122 311.184 217.626 310.645 217.263 309.952C216.901 309.259 216.719 308.469 216.719 307.584ZM224.143 307.6C224.143 306.939 224.01 306.363 223.743 305.872C223.477 305.381 223.114 305.008 222.655 304.752C222.207 304.485 221.711 304.352 221.167 304.352C220.623 304.352 220.127 304.48 219.679 304.736C219.231 304.992 218.874 305.365 218.607 305.856C218.341 306.347 218.207 306.923 218.207 307.584C218.207 308.256 218.341 308.843 218.607 309.344C218.874 309.835 219.231 310.213 219.679 310.48C220.127 310.736 220.623 310.864 221.167 310.864C221.711 310.864 222.207 310.736 222.655 310.48C223.114 310.213 223.477 309.835 223.743 309.344C224.01 308.843 224.143 308.261 224.143 307.6ZM236.076 307.28C236.076 307.557 236.06 307.851 236.028 308.16H229.02C229.073 309.024 229.366 309.701 229.9 310.192C230.444 310.672 231.1 310.912 231.868 310.912C232.497 310.912 233.02 310.768 233.436 310.48C233.862 310.181 234.161 309.787 234.332 309.296H235.9C235.665 310.139 235.196 310.827 234.492 311.36C233.788 311.883 232.913 312.144 231.868 312.144C231.036 312.144 230.289 311.957 229.628 311.584C228.977 311.211 228.465 310.683 228.092 310C227.718 309.307 227.532 308.507 227.532 307.6C227.532 306.693 227.713 305.899 228.076 305.216C228.438 304.533 228.945 304.011 229.596 303.648C230.257 303.275 231.014 303.088 231.868 303.088C232.7 303.088 233.436 303.269 234.076 303.632C234.716 303.995 235.206 304.496 235.548 305.136C235.9 305.765 236.076 306.48 236.076 307.28ZM234.572 306.976C234.572 306.421 234.449 305.947 234.204 305.552C233.958 305.147 233.622 304.843 233.196 304.64C232.78 304.427 232.316 304.32 231.804 304.32C231.068 304.32 230.438 304.555 229.916 305.024C229.404 305.493 229.11 306.144 229.036 306.976H234.572ZM241.719 307.584C241.719 306.688 241.901 305.904 242.263 305.232C242.626 304.549 243.122 304.021 243.751 303.648C244.391 303.275 245.106 303.088 245.895 303.088C246.578 303.088 247.213 303.248 247.799 303.568C248.386 303.877 248.834 304.288 249.143 304.8V300.16H250.615V312H249.143V310.352C248.855 310.875 248.429 311.307 247.863 311.648C247.298 311.979 246.637 312.144 245.879 312.144C245.101 312.144 244.391 311.952 243.751 311.568C243.122 311.184 242.626 310.645 242.263 309.952C241.901 309.259 241.719 308.469 241.719 307.584ZM249.143 307.6C249.143 306.939 249.01 306.363 248.743 305.872C248.477 305.381 248.114 305.008 247.655 304.752C247.207 304.485 246.711 304.352 246.167 304.352C245.623 304.352 245.127 304.48 244.679 304.736C244.231 304.992 243.874 305.365 243.607 305.856C243.341 306.347 243.207 306.923 243.207 307.584C243.207 308.256 243.341 308.843 243.607 309.344C243.874 309.835 244.231 310.213 244.679 310.48C245.127 310.736 245.623 310.864 246.167 310.864C246.711 310.864 247.207 310.736 247.655 310.48C248.114 310.213 248.477 309.835 248.743 309.344C249.01 308.843 249.143 308.261 249.143 307.6ZM261.076 307.28C261.076 307.557 261.06 307.851 261.028 308.16H254.02C254.073 309.024 254.366 309.701 254.9 310.192C255.444 310.672 256.1 310.912 256.868 310.912C257.497 310.912 258.02 310.768 258.436 310.48C258.862 310.181 259.161 309.787 259.332 309.296H260.9C260.665 310.139 260.196 310.827 259.492 311.36C258.788 311.883 257.913 312.144 256.868 312.144C256.036 312.144 255.289 311.957 254.628 311.584C253.977 311.211 253.465 310.683 253.092 310C252.718 309.307 252.532 308.507 252.532 307.6C252.532 306.693 252.713 305.899 253.076 305.216C253.438 304.533 253.945 304.011 254.596 303.648C255.257 303.275 256.014 303.088 256.868 303.088C257.7 303.088 258.436 303.269 259.076 303.632C259.716 303.995 260.206 304.496 260.548 305.136C260.9 305.765 261.076 306.48 261.076 307.28ZM259.572 306.976C259.572 306.421 259.449 305.947 259.204 305.552C258.958 305.147 258.622 304.843 258.196 304.64C257.78 304.427 257.316 304.32 256.804 304.32C256.068 304.32 255.438 304.555 254.916 305.024C254.404 305.493 254.11 306.144 254.036 306.976H259.572ZM266.262 310.656L268.982 303.232H270.534L267.094 312H265.398L261.958 303.232H263.526L266.262 310.656Z" fill="white"/>
<path d="M243.506 648.685C240.539 648.685 238.133 646.293 238.133 643.342C238.133 640.392 240.539 638 243.506 638C246.473 638 248.878 640.392 248.878 643.342C248.878 646.284 246.473 648.685 243.506 648.685Z" stroke="#04D361" stroke-width="2" stroke-miterlimit="10" stroke-linecap="round" stroke-linejoin="round"/>
<path d="M239.799 647.204L236 650.973" stroke="#04D361" stroke-width="2" stroke-miterlimit="10" stroke-linecap="round" stroke-linejoin="round"/>
<path d="M127.652 594L122 599.621" stroke="#04D361" stroke-width="2" stroke-miterlimit="10" stroke-linecap="round" stroke-linejoin="round"/>
<path d="M127.652 599.621L122 594" stroke="#04D361" stroke-width="2" stroke-miterlimit="10" stroke-linecap="round" stroke-linejoin="round"/>
<path d="M60.439 272.618L52.4459 272.618" stroke="#04D361" stroke-width="2" stroke-miterlimit="10" stroke-linecap="round" stroke-linejoin="round"/>
<path d="M56.4434 276.603L56.4434 268.645" stroke="#04D361" stroke-width="2" stroke-miterlimit="10" stroke-linecap="round" stroke-linejoin="round"/>
<path d="M192.366 165.305C189.689 165.305 187.508 163.145 187.508 160.474C187.508 157.812 189.68 155.643 192.366 155.643C195.043 155.643 197.223 157.803 197.223 160.474C197.214 163.145 195.043 165.305 192.366 165.305Z" stroke="#04D361" stroke-width="2" stroke-miterlimit="10" stroke-linecap="round" stroke-linejoin="round"/>
<path d="M318.142 449.577C315.465 449.577 313.285 447.417 313.285 444.746C313.285 442.084 315.456 439.915 318.142 439.915C320.819 439.915 323 442.075 323 444.746C322.991 447.417 320.819 449.577 318.142 449.577Z" stroke="#04D361" stroke-width="2" stroke-miterlimit="10" stroke-linecap="round" stroke-linejoin="round"/>
<path d="M62.8576 520.441C60.1807 520.441 57.9999 518.282 57.9999 515.611C57.9999 512.949 60.1714 510.78 62.8576 510.78C65.5344 510.78 67.7153 512.939 67.7153 515.611C67.7059 518.282 65.5344 520.441 62.8576 520.441Z" stroke="#04D361" stroke-width="2" stroke-miterlimit="10" stroke-linecap="round" stroke-linejoin="round"/>
<path d="M125.35 114.75C125.35 115.716 126.138 116.499 127.109 116.499C128.081 116.499 128.869 115.716 128.869 114.75C128.869 113.784 128.081 113 127.109 113C126.138 113 125.35 113.784 125.35 114.75Z" fill="#9871F5"/>
<path d="M125.35 126.97C125.35 127.937 126.138 128.72 127.109 128.72C128.081 128.72 128.869 127.937 128.869 126.97C128.869 126.004 128.081 125.221 127.109 125.221C126.138 125.221 125.35 126.004 125.35 126.97Z" fill="#9871F5"/>
<path d="M125.35 139.18C125.35 140.146 126.138 140.929 127.109 140.929C128.081 140.929 128.869 140.146 128.869 139.18C128.869 138.214 128.081 137.43 127.109 137.43C126.138 137.43 125.35 138.214 125.35 139.18Z" fill="#9871F5"/>
<path d="M125.35 151.4C125.35 152.366 126.138 153.15 127.109 153.15C128.081 153.15 128.869 152.366 128.869 151.4C128.869 150.434 128.081 149.651 127.109 149.651C126.138 149.651 125.35 150.434 125.35 151.4Z" fill="#9871F5"/>
<path d="M125.35 163.611C125.35 164.577 126.138 165.36 127.109 165.36C128.081 165.36 128.869 164.577 128.869 163.611C128.869 162.645 128.081 161.861 127.109 161.861C126.138 161.861 125.35 162.645 125.35 163.611Z" fill="#9871F5"/>
<path d="M125.35 175.831C125.35 176.797 126.138 177.58 127.109 177.58C128.081 177.58 128.869 176.797 128.869 175.831C128.869 174.864 128.081 174.081 127.109 174.081C126.138 174.081 125.35 174.864 125.35 175.831Z" fill="#9871F5"/>
<path d="M113.07 114.75C113.07 115.716 113.858 116.499 114.829 116.499C115.801 116.499 116.589 115.716 116.589 114.75C116.589 113.783 115.801 113 114.829 113C113.858 113 113.07 113.783 113.07 114.75Z" fill="#9871F5"/>
<path d="M113.07 126.97C113.07 127.936 113.858 128.72 114.829 128.72C115.801 128.72 116.589 127.936 116.589 126.97C116.589 126.004 115.801 125.221 114.829 125.221C113.858 125.221 113.07 126.004 113.07 126.97Z" fill="#9871F5"/>
<path d="M113.07 139.18C113.07 140.146 113.858 140.93 114.829 140.93C115.801 140.93 116.589 140.146 116.589 139.18C116.589 138.214 115.801 137.431 114.829 137.431C113.858 137.431 113.07 138.214 113.07 139.18Z" fill="#9871F5"/>
<path d="M113.07 151.4C113.07 152.367 113.858 153.15 114.829 153.15C115.801 153.15 116.589 152.367 116.589 151.4C116.589 150.434 115.801 149.651 114.829 149.651C113.858 149.651 113.07 150.434 113.07 151.4Z" fill="#9871F5"/>
<path d="M113.07 163.611C113.07 164.577 113.858 165.36 114.829 165.36C115.801 165.36 116.589 164.577 116.589 163.611C116.589 162.645 115.801 161.861 114.829 161.861C113.858 161.861 113.07 162.645 113.07 163.611Z" fill="#9871F5"/>
<path d="M113.07 175.831C113.07 176.797 113.858 177.58 114.829 177.58C115.801 177.58 116.589 176.797 116.589 175.831C116.589 174.864 115.801 174.081 114.829 174.081C113.858 174.081 113.07 174.864 113.07 175.831Z" fill="#9871F5"/>
<path d="M100.781 114.75C100.781 115.716 101.569 116.499 102.54 116.499C103.512 116.499 104.3 115.716 104.3 114.75C104.3 113.783 103.512 113 102.54 113C101.569 113 100.781 113.783 100.781 114.75Z" fill="#9871F5"/>
<path d="M100.781 126.97C100.781 127.936 101.569 128.72 102.54 128.72C103.512 128.72 104.3 127.936 104.3 126.97C104.3 126.004 103.512 125.221 102.54 125.221C101.569 125.221 100.781 126.004 100.781 126.97Z" fill="#9871F5"/>
<path d="M100.781 139.18C100.781 140.146 101.569 140.93 102.54 140.93C103.512 140.93 104.3 140.146 104.3 139.18C104.3 138.214 103.512 137.431 102.54 137.431C101.569 137.431 100.781 138.214 100.781 139.18Z" fill="#9871F5"/>
<path d="M100.781 151.4C100.781 152.367 101.569 153.15 102.54 153.15C103.512 153.15 104.3 152.367 104.3 151.4C104.3 150.434 103.512 149.651 102.54 149.651C101.569 149.651 100.781 150.434 100.781 151.4Z" fill="#9871F5"/>
<path d="M100.781 163.611C100.781 164.577 101.569 165.36 102.54 165.36C103.512 165.36 104.3 164.577 104.3 163.611C104.3 162.645 103.512 161.861 102.54 161.861C101.569 161.861 100.781 162.645 100.781 163.611Z" fill="#9871F5"/>
<path d="M100.781 175.831C100.781 176.797 101.569 177.58 102.54 177.58C103.512 177.58 104.3 176.797 104.3 175.831C104.3 174.864 103.512 174.081 102.54 174.081C101.569 174.081 100.781 174.864 100.781 175.831Z" fill="#9871F5"/>
<path d="M88.5011 114.75C88.5011 115.716 89.2888 116.499 90.2604 116.499C91.2321 116.499 92.0197 115.716 92.0197 114.75C92.0197 113.783 91.2321 113 90.2604 113C89.2888 113 88.5011 113.783 88.5011 114.75Z" fill="#9871F5"/>
<path d="M88.5011 126.97C88.5011 127.936 89.2888 128.72 90.2604 128.72C91.2321 128.72 92.0198 127.936 92.0198 126.97C92.0198 126.004 91.2321 125.221 90.2604 125.221C89.2888 125.221 88.5011 126.004 88.5011 126.97Z" fill="#9871F5"/>
<path d="M88.5011 139.18C88.5011 140.146 89.2888 140.93 90.2604 140.93C91.2321 140.93 92.0198 140.146 92.0198 139.18C92.0198 138.214 91.2321 137.431 90.2604 137.431C89.2888 137.431 88.5011 138.214 88.5011 139.18Z" fill="#9871F5"/>
<path d="M88.5011 151.4C88.5011 152.367 89.2888 153.15 90.2604 153.15C91.2321 153.15 92.0198 152.367 92.0198 151.4C92.0198 150.434 91.2321 149.651 90.2604 149.651C89.2888 149.651 88.5011 150.434 88.5011 151.4Z" fill="#9871F5"/>
<path d="M88.5011 163.611C88.5011 164.577 89.2888 165.36 90.2604 165.36C91.2321 165.36 92.0198 164.577 92.0198 163.611C92.0198 162.645 91.2321 161.861 90.2604 161.861C89.2888 161.861 88.5011 162.645 88.5011 163.611Z" fill="#9871F5"/>
<path d="M88.5011 175.831C88.5011 176.797 89.2888 177.58 90.2604 177.58C91.2321 177.58 92.0198 176.797 92.0198 175.831C92.0198 174.864 91.2321 174.081 90.2604 174.081C89.2888 174.081 88.5011 174.864 88.5011 175.831Z" fill="#9871F5"/>
<path d="M250.289 535.75C250.289 536.716 251.077 537.499 252.048 537.499C253.02 537.499 253.807 536.716 253.807 535.75C253.807 534.784 253.02 534 252.048 534C251.077 534 250.289 534.784 250.289 535.75Z" fill="#9871F5"/>
<path d="M250.289 547.961C250.289 548.928 251.077 549.711 252.049 549.711C253.02 549.711 253.808 548.928 253.808 547.961C253.808 546.995 253.02 546.212 252.049 546.212C251.077 546.212 250.289 546.995 250.289 547.961Z" fill="#9871F5"/>
<path d="M250.289 560.18C250.289 561.146 251.077 561.929 252.049 561.929C253.02 561.929 253.808 561.146 253.808 560.18C253.808 559.214 253.02 558.43 252.049 558.43C251.077 558.43 250.289 559.214 250.289 560.18Z" fill="#9871F5"/>
<path d="M238 535.75C238 536.716 238.788 537.499 239.759 537.499C240.731 537.499 241.519 536.716 241.519 535.75C241.519 534.783 240.731 534 239.759 534C238.788 534 238 534.783 238 535.75Z" fill="#9871F5"/>
<path d="M238 547.961C238 548.928 238.788 549.711 239.759 549.711C240.731 549.711 241.519 548.928 241.519 547.961C241.519 546.995 240.731 546.212 239.759 546.212C238.788 546.212 238 546.995 238 547.961Z" fill="#9871F5"/>
<path d="M238 560.18C238 561.146 238.788 561.929 239.759 561.929C240.731 561.929 241.519 561.146 241.519 560.18C241.519 559.213 240.731 558.43 239.759 558.43C238.788 558.43 238 559.213 238 560.18Z" fill="#9871F5"/>
<path d="M301.643 260.077C301.643 261.043 302.431 261.826 303.402 261.826C304.374 261.826 305.162 261.043 305.162 260.077C305.162 259.11 304.374 258.327 303.402 258.327C302.431 258.327 301.643 259.11 301.643 260.077Z" fill="#9871F5"/>
<path d="M301.643 272.287C301.643 273.253 302.431 274.036 303.402 274.036C304.374 274.036 305.162 273.253 305.162 272.287C305.162 271.321 304.374 270.537 303.402 270.537C302.431 270.537 301.643 271.321 301.643 272.287Z" fill="#9871F5"/>
<path d="M301.643 284.507C301.643 285.473 302.431 286.256 303.402 286.256C304.374 286.256 305.162 285.473 305.162 284.507C305.162 283.54 304.374 282.757 303.402 282.757C302.431 282.757 301.643 283.54 301.643 284.507Z" fill="#9871F5"/>
<path d="M289.354 260.077C289.354 261.043 290.141 261.826 291.113 261.826C292.085 261.826 292.872 261.043 292.872 260.077C292.872 259.11 292.085 258.327 291.113 258.327C290.141 258.327 289.354 259.11 289.354 260.077Z" fill="#9871F5"/>
<path d="M289.354 272.287C289.354 273.253 290.141 274.036 291.113 274.036C292.085 274.036 292.872 273.253 292.872 272.287C292.872 271.321 292.085 270.537 291.113 270.537C290.141 270.537 289.354 271.321 289.354 272.287Z" fill="#9871F5"/>
<path d="M289.354 284.507C289.354 285.473 290.141 286.257 291.113 286.257C292.085 286.257 292.872 285.473 292.872 284.507C292.872 283.541 292.085 282.758 291.113 282.758C290.141 282.758 289.354 283.541 289.354 284.507Z" fill="#9871F5"/>
<path d="M125.35 697.25C125.35 698.216 126.138 699 127.109 699C128.081 699 128.869 698.216 128.869 697.25C128.869 696.284 128.081 695.501 127.109 695.501C126.138 695.501 125.35 696.284 125.35 697.25Z" fill="#9871F5"/>
<path d="M113.061 697.251C113.061 698.217 113.849 699 114.82 699C115.792 699 116.579 698.217 116.579 697.251C116.579 696.284 115.792 695.501 114.82 695.501C113.849 695.501 113.061 696.284 113.061 697.251Z" fill="#9871F5"/>
<path d="M100.781 697.251C100.781 698.217 101.569 699 102.54 699C103.512 699 104.299 698.217 104.299 697.251C104.299 696.284 103.512 695.501 102.54 695.501C101.569 695.501 100.781 696.284 100.781 697.251Z" fill="#9871F5"/>
<path d="M88.4916 697.251C88.4916 698.217 89.2793 699 90.2509 699C91.2225 699 92.0102 698.217 92.0102 697.251C92.0102 696.284 91.2225 695.501 90.2509 695.501C89.2793 695.501 88.4916 696.284 88.4916 697.251Z" fill="#9871F5"/>
<path d="M76.2118 697.251C76.2118 698.217 76.9995 699 77.9711 699C78.9428 699 79.7304 698.217 79.7304 697.251C79.7304 696.284 78.9428 695.501 77.9711 695.501C76.9995 695.501 76.2118 696.284 76.2118 697.251Z" fill="#9871F5"/>
<path d="M63.9225 697.251C63.9225 698.217 64.7102 699 65.6819 699C66.6535 699 67.4412 698.217 67.4412 697.251C67.4412 696.284 66.6535 695.501 65.6819 695.501C64.7102 695.501 63.9225 696.284 63.9225 697.251Z" fill="#9871F5"/>
<path d="M51.6425 697.251C51.6425 698.217 52.4302 699 53.4019 699C54.3735 699 55.1612 698.217 55.1612 697.251C55.1612 696.284 54.3735 695.501 53.4019 695.501C52.4302 695.501 51.6425 696.284 51.6425 697.251Z" fill="#9871F5"/>
<path d="M125.35 685.031C125.35 685.997 126.138 686.78 127.109 686.78C128.081 686.78 128.869 685.997 128.869 685.031C128.869 684.065 128.081 683.281 127.109 683.281C126.138 683.281 125.35 684.065 125.35 685.031Z" fill="#9871F5"/>
<path d="M113.061 685.031C113.061 685.997 113.849 686.78 114.82 686.78C115.792 686.78 116.579 685.997 116.579 685.031C116.579 684.065 115.792 683.281 114.82 683.281C113.849 683.281 113.061 684.065 113.061 685.031Z" fill="#9871F5"/>
<path d="M100.781 685.031C100.781 685.997 101.569 686.78 102.54 686.78C103.512 686.78 104.299 685.997 104.299 685.031C104.299 684.065 103.512 683.281 102.54 683.281C101.569 683.281 100.781 684.065 100.781 685.031Z" fill="#9871F5"/>
<path d="M88.4916 685.031C88.4916 685.997 89.2793 686.78 90.2509 686.78C91.2225 686.78 92.0102 685.997 92.0102 685.031C92.0102 684.065 91.2225 683.281 90.2509 683.281C89.2793 683.281 88.4916 684.065 88.4916 685.031Z" fill="#9871F5"/>
<path d="M76.2118 685.031C76.2118 685.997 76.9995 686.78 77.9711 686.78C78.9428 686.78 79.7304 685.997 79.7304 685.031C79.7304 684.065 78.9428 683.281 77.9711 683.281C76.9995 683.281 76.2118 684.065 76.2118 685.031Z" fill="#9871F5"/>
<path d="M63.9225 685.031C63.9225 685.997 64.7102 686.78 65.6819 686.78C66.6535 686.78 67.4412 685.997 67.4412 685.031C67.4412 684.065 66.6535 683.281 65.6819 683.281C64.7102 683.281 63.9225 684.065 63.9225 685.031Z" fill="#9871F5"/>
<path d="M51.6425 685.031C51.6425 685.997 52.4302 686.78 53.4019 686.78C54.3735 686.78 55.1612 685.997 55.1612 685.031C55.1612 684.065 54.3735 683.281 53.4019 683.281C52.4302 683.281 51.6425 684.065 51.6425 685.031Z" fill="#9871F5"/>
<path d="M125.35 672.82C125.35 673.786 126.138 674.569 127.109 674.569C128.081 674.569 128.869 673.786 128.869 672.82C128.869 671.854 128.081 671.07 127.109 671.07C126.138 671.07 125.35 671.854 125.35 672.82Z" fill="#9871F5"/>
<path d="M113.061 672.82C113.061 673.786 113.849 674.569 114.82 674.569C115.792 674.569 116.579 673.786 116.579 672.82C116.579 671.854 115.792 671.07 114.82 671.07C113.849 671.07 113.061 671.854 113.061 672.82Z" fill="#9871F5"/>
<path d="M100.781 672.82C100.781 673.786 101.568 674.569 102.54 674.569C103.512 674.569 104.299 673.786 104.299 672.82C104.299 671.854 103.512 671.07 102.54 671.07C101.568 671.07 100.781 671.854 100.781 672.82Z" fill="#9871F5"/>
<path d="M88.4916 672.82C88.4916 673.786 89.2793 674.569 90.2509 674.569C91.2225 674.569 92.0102 673.786 92.0102 672.82C92.0102 671.854 91.2225 671.07 90.2509 671.07C89.2793 671.07 88.4916 671.854 88.4916 672.82Z" fill="#9871F5"/>
<path d="M76.2118 672.82C76.2118 673.786 76.9995 674.569 77.9711 674.569C78.9428 674.569 79.7304 673.786 79.7304 672.82C79.7304 671.854 78.9428 671.07 77.9711 671.07C76.9995 671.07 76.2118 671.854 76.2118 672.82Z" fill="#9871F5"/>
<path d="M63.9225 672.82C63.9225 673.786 64.7102 674.569 65.6819 674.569C66.6535 674.569 67.4412 673.786 67.4412 672.82C67.4412 671.854 66.6535 671.07 65.6819 671.07C64.7102 671.07 63.9225 671.854 63.9225 672.82Z" fill="#9871F5"/>
<path d="M51.6425 672.82C51.6425 673.786 52.4302 674.569 53.4019 674.569C54.3735 674.569 55.1612 673.786 55.1612 672.82C55.1612 671.854 54.3735 671.07 53.4019 671.07C52.4302 671.07 51.6425 671.854 51.6425 672.82Z" fill="#9871F5"/>
<path d="M125.349 660.601C125.349 661.567 126.137 662.35 127.108 662.35C128.08 662.35 128.868 661.567 128.868 660.601C128.868 659.634 128.08 658.851 127.108 658.851C126.137 658.851 125.349 659.634 125.349 660.601Z" fill="#9871F5"/>
<path d="M113.061 660.6C113.061 661.566 113.849 662.35 114.82 662.35C115.792 662.35 116.579 661.566 116.579 660.6C116.579 659.634 115.792 658.851 114.82 658.851C113.849 658.851 113.061 659.634 113.061 660.6Z" fill="#9871F5"/>
<path d="M100.781 660.6C100.781 661.566 101.568 662.35 102.54 662.35C103.512 662.35 104.299 661.566 104.299 660.6C104.299 659.634 103.512 658.851 102.54 658.851C101.568 658.851 100.781 659.634 100.781 660.6Z" fill="#9871F5"/>
<path d="M88.4916 660.6C88.4916 661.566 89.2793 662.35 90.2509 662.35C91.2225 662.35 92.0102 661.566 92.0102 660.6C92.0102 659.634 91.2225 658.851 90.2509 658.851C89.2793 658.851 88.4916 659.634 88.4916 660.6Z" fill="#9871F5"/>
<path d="M76.2118 660.6C76.2118 661.566 76.9995 662.35 77.9711 662.35C78.9428 662.35 79.7304 661.566 79.7304 660.6C79.7304 659.634 78.9428 658.851 77.9711 658.851C76.9995 658.851 76.2118 659.634 76.2118 660.6Z" fill="#9871F5"/>
<path d="M63.9225 660.6C63.9225 661.566 64.7102 662.35 65.6819 662.35C66.6535 662.35 67.4412 661.566 67.4412 660.6C67.4412 659.634 66.6535 658.851 65.6819 658.851C64.7102 658.851 63.9225 659.634 63.9225 660.6Z" fill="#9871F5"/>
<path d="M51.6425 660.6C51.6425 661.566 52.4302 662.35 53.4019 662.35C54.3735 662.35 55.1612 661.566 55.1612 660.6C55.1612 659.634 54.3735 658.851 53.4019 658.851C52.4302 658.851 51.6425 659.634 51.6425 660.6Z" fill="#9871F5"/>
</svg>
